<mxfile host="app.diagrams.net" modified="2021-05-24T01:20:39.782Z" agent="5.0 (Windows NT 10.0; Win64; x64) AppleWebKit/537.36 (KHTML, like Gecko) Chrome/90.0.4430.212 Safari/537.36" etag="_vpGP1cGl0gEYe_AG372" version="14.6.10" type="github">
  <diagram id="gt1FGLD3rU8J6xSPWKna" name="Page-1">
    <mxGraphModel dx="1422" dy="762" grid="1" gridSize="10" guides="1" tooltips="1" connect="1" arrows="1" fold="1" page="1" pageScale="1" pageWidth="850" pageHeight="1100" math="0" shadow="0">
      <root>
        <mxCell id="0" />
        <mxCell id="1" parent="0" />
        <mxCell id="vBsG9OUvxW7fwPlPpPtp-1" value="Requirements:&lt;br&gt;1-uploading images,&lt;br&gt;2-follow users&lt;br&gt;3-Read feed of the user you follow&lt;br&gt;&lt;br&gt;&lt;br&gt;Scale:10 millon users active&lt;br&gt;&lt;br&gt;upload 2 photos per month 5MB=10m*2*5=100TB/m=1.2PB year&lt;br&gt;&lt;br&gt;Non-futnionla:Availability - Scablable" style="text;html=1;strokeColor=none;fillColor=none;align=center;verticalAlign=middle;whiteSpace=wrap;rounded=0;" vertex="1" parent="1">
          <mxGeometry x="10" y="10" width="190" height="320" as="geometry" />
        </mxCell>
        <mxCell id="vBsG9OUvxW7fwPlPpPtp-2" value="Relational Database&amp;nbsp; Scheme of the database" style="text;html=1;strokeColor=none;fillColor=none;align=center;verticalAlign=middle;whiteSpace=wrap;rounded=0;" vertex="1" parent="1">
          <mxGeometry x="380" y="170" width="180" height="30" as="geometry" />
        </mxCell>
        <mxCell id="vBsG9OUvxW7fwPlPpPtp-3" value="User" style="swimlane;fontStyle=0;childLayout=stackLayout;horizontal=1;startSize=26;fillColor=none;horizontalStack=0;resizeParent=1;resizeParentMax=0;resizeLast=0;collapsible=1;marginBottom=0;" vertex="1" parent="1">
          <mxGeometry x="270" y="280" width="140" height="52" as="geometry" />
        </mxCell>
        <mxCell id="vBsG9OUvxW7fwPlPpPtp-4" value="Id Integer" style="text;strokeColor=none;fillColor=none;align=left;verticalAlign=top;spacingLeft=4;spacingRight=4;overflow=hidden;rotatable=0;points=[[0,0.5],[1,0.5]];portConstraint=eastwest;" vertex="1" parent="vBsG9OUvxW7fwPlPpPtp-3">
          <mxGeometry y="26" width="140" height="26" as="geometry" />
        </mxCell>
        <mxCell id="vBsG9OUvxW7fwPlPpPtp-7" value="Phothos" style="swimlane;fontStyle=0;childLayout=stackLayout;horizontal=1;startSize=26;fillColor=none;horizontalStack=0;resizeParent=1;resizeParentMax=0;resizeLast=0;collapsible=1;marginBottom=0;" vertex="1" parent="1">
          <mxGeometry x="540" y="266" width="140" height="104" as="geometry" />
        </mxCell>
        <mxCell id="vBsG9OUvxW7fwPlPpPtp-8" value="id integer" style="text;strokeColor=none;fillColor=none;align=left;verticalAlign=top;spacingLeft=4;spacingRight=4;overflow=hidden;rotatable=0;points=[[0,0.5],[1,0.5]];portConstraint=eastwest;" vertex="1" parent="vBsG9OUvxW7fwPlPpPtp-7">
          <mxGeometry y="26" width="140" height="26" as="geometry" />
        </mxCell>
        <mxCell id="vBsG9OUvxW7fwPlPpPtp-9" value="Id_user_id" style="text;strokeColor=none;fillColor=none;align=left;verticalAlign=top;spacingLeft=4;spacingRight=4;overflow=hidden;rotatable=0;points=[[0,0.5],[1,0.5]];portConstraint=eastwest;" vertex="1" parent="vBsG9OUvxW7fwPlPpPtp-7">
          <mxGeometry y="52" width="140" height="26" as="geometry" />
        </mxCell>
        <mxCell id="vBsG9OUvxW7fwPlPpPtp-10" value="URL String" style="text;strokeColor=none;fillColor=none;align=left;verticalAlign=top;spacingLeft=4;spacingRight=4;overflow=hidden;rotatable=0;points=[[0,0.5],[1,0.5]];portConstraint=eastwest;" vertex="1" parent="vBsG9OUvxW7fwPlPpPtp-7">
          <mxGeometry y="78" width="140" height="26" as="geometry" />
        </mxCell>
        <mxCell id="vBsG9OUvxW7fwPlPpPtp-11" value="S3 to save pictures" style="ellipse;shape=cloud;whiteSpace=wrap;html=1;" vertex="1" parent="1">
          <mxGeometry x="290" y="880" width="250" height="105" as="geometry" />
        </mxCell>
        <mxCell id="vBsG9OUvxW7fwPlPpPtp-12" style="edgeStyle=orthogonalEdgeStyle;rounded=0;orthogonalLoop=1;jettySize=auto;html=1;exitX=1;exitY=0.5;exitDx=0;exitDy=0;entryX=-0.014;entryY=0.154;entryDx=0;entryDy=0;entryPerimeter=0;" edge="1" parent="1" source="vBsG9OUvxW7fwPlPpPtp-4" target="vBsG9OUvxW7fwPlPpPtp-9">
          <mxGeometry relative="1" as="geometry" />
        </mxCell>
        <mxCell id="vBsG9OUvxW7fwPlPpPtp-13" value="1" style="text;html=1;strokeColor=none;fillColor=none;align=center;verticalAlign=middle;whiteSpace=wrap;rounded=0;" vertex="1" parent="1">
          <mxGeometry x="410" y="286" width="40" height="20" as="geometry" />
        </mxCell>
        <mxCell id="vBsG9OUvxW7fwPlPpPtp-14" value="n" style="text;html=1;strokeColor=none;fillColor=none;align=center;verticalAlign=middle;whiteSpace=wrap;rounded=0;" vertex="1" parent="1">
          <mxGeometry x="490" y="290" width="40" height="20" as="geometry" />
        </mxCell>
        <mxCell id="vBsG9OUvxW7fwPlPpPtp-15" value="Follows" style="swimlane;fontStyle=0;childLayout=stackLayout;horizontal=1;startSize=26;fillColor=none;horizontalStack=0;resizeParent=1;resizeParentMax=0;resizeLast=0;collapsible=1;marginBottom=0;" vertex="1" parent="1">
          <mxGeometry x="350" y="400" width="140" height="104" as="geometry" />
        </mxCell>
        <mxCell id="vBsG9OUvxW7fwPlPpPtp-16" value="Id integer" style="text;strokeColor=none;fillColor=none;align=left;verticalAlign=top;spacingLeft=4;spacingRight=4;overflow=hidden;rotatable=0;points=[[0,0.5],[1,0.5]];portConstraint=eastwest;" vertex="1" parent="vBsG9OUvxW7fwPlPpPtp-15">
          <mxGeometry y="26" width="140" height="26" as="geometry" />
        </mxCell>
        <mxCell id="vBsG9OUvxW7fwPlPpPtp-17" value="Id_user_id follower Fk" style="text;strokeColor=none;fillColor=none;align=left;verticalAlign=top;spacingLeft=4;spacingRight=4;overflow=hidden;rotatable=0;points=[[0,0.5],[1,0.5]];portConstraint=eastwest;" vertex="1" parent="vBsG9OUvxW7fwPlPpPtp-15">
          <mxGeometry y="52" width="140" height="26" as="geometry" />
        </mxCell>
        <mxCell id="vBsG9OUvxW7fwPlPpPtp-18" value="Id_user_id following FK" style="text;strokeColor=none;fillColor=none;align=left;verticalAlign=top;spacingLeft=4;spacingRight=4;overflow=hidden;rotatable=0;points=[[0,0.5],[1,0.5]];portConstraint=eastwest;" vertex="1" parent="vBsG9OUvxW7fwPlPpPtp-15">
          <mxGeometry y="78" width="140" height="26" as="geometry" />
        </mxCell>
        <mxCell id="vBsG9OUvxW7fwPlPpPtp-19" style="edgeStyle=orthogonalEdgeStyle;rounded=0;orthogonalLoop=1;jettySize=auto;html=1;entryX=0;entryY=0.5;entryDx=0;entryDy=0;" edge="1" parent="1" source="vBsG9OUvxW7fwPlPpPtp-6" target="vBsG9OUvxW7fwPlPpPtp-17">
          <mxGeometry relative="1" as="geometry">
            <Array as="points">
              <mxPoint x="270" y="465" />
            </Array>
          </mxGeometry>
        </mxCell>
        <mxCell id="vBsG9OUvxW7fwPlPpPtp-6" value="name string" style="text;strokeColor=none;fillColor=none;align=left;verticalAlign=top;spacingLeft=4;spacingRight=4;overflow=hidden;rotatable=0;points=[[0,0.5],[1,0.5]];portConstraint=eastwest;" vertex="1" parent="1">
          <mxGeometry x="270" y="332" width="140" height="26" as="geometry" />
        </mxCell>
        <mxCell id="vBsG9OUvxW7fwPlPpPtp-20" style="edgeStyle=orthogonalEdgeStyle;rounded=0;orthogonalLoop=1;jettySize=auto;html=1;entryX=0;entryY=0.5;entryDx=0;entryDy=0;" edge="1" parent="1" source="vBsG9OUvxW7fwPlPpPtp-18" target="vBsG9OUvxW7fwPlPpPtp-4">
          <mxGeometry relative="1" as="geometry" />
        </mxCell>
        <mxCell id="vBsG9OUvxW7fwPlPpPtp-25" style="edgeStyle=orthogonalEdgeStyle;rounded=0;orthogonalLoop=1;jettySize=auto;html=1;exitX=1;exitY=0.5;exitDx=0;exitDy=0;entryX=-0.067;entryY=0.439;entryDx=0;entryDy=0;entryPerimeter=0;" edge="1" parent="1" source="vBsG9OUvxW7fwPlPpPtp-21" target="vBsG9OUvxW7fwPlPpPtp-24">
          <mxGeometry relative="1" as="geometry" />
        </mxCell>
        <mxCell id="vBsG9OUvxW7fwPlPpPtp-41" style="edgeStyle=orthogonalEdgeStyle;rounded=0;orthogonalLoop=1;jettySize=auto;html=1;exitX=0.5;exitY=0;exitDx=0;exitDy=0;entryX=0.5;entryY=1;entryDx=0;entryDy=0;" edge="1" parent="1" source="vBsG9OUvxW7fwPlPpPtp-21" target="vBsG9OUvxW7fwPlPpPtp-40">
          <mxGeometry relative="1" as="geometry" />
        </mxCell>
        <mxCell id="vBsG9OUvxW7fwPlPpPtp-21" value="Client Mobilie" style="rounded=0;whiteSpace=wrap;html=1;" vertex="1" parent="1">
          <mxGeometry x="10" y="670" width="80" height="60" as="geometry" />
        </mxCell>
        <mxCell id="vBsG9OUvxW7fwPlPpPtp-28" style="edgeStyle=orthogonalEdgeStyle;rounded=0;orthogonalLoop=1;jettySize=auto;html=1;exitX=1;exitY=0.5;exitDx=0;exitDy=0;" edge="1" parent="1" source="vBsG9OUvxW7fwPlPpPtp-22" target="vBsG9OUvxW7fwPlPpPtp-27">
          <mxGeometry relative="1" as="geometry" />
        </mxCell>
        <mxCell id="vBsG9OUvxW7fwPlPpPtp-22" value="API READ" style="whiteSpace=wrap;html=1;aspect=fixed;" vertex="1" parent="1">
          <mxGeometry x="220" y="610" width="80" height="80" as="geometry" />
        </mxCell>
        <mxCell id="vBsG9OUvxW7fwPlPpPtp-33" style="edgeStyle=orthogonalEdgeStyle;rounded=0;orthogonalLoop=1;jettySize=auto;html=1;exitX=1;exitY=0.5;exitDx=0;exitDy=0;entryX=0.25;entryY=0.25;entryDx=0;entryDy=0;entryPerimeter=0;" edge="1" parent="1" source="vBsG9OUvxW7fwPlPpPtp-23" target="vBsG9OUvxW7fwPlPpPtp-11">
          <mxGeometry relative="1" as="geometry" />
        </mxCell>
        <mxCell id="vBsG9OUvxW7fwPlPpPtp-34" style="edgeStyle=orthogonalEdgeStyle;rounded=0;orthogonalLoop=1;jettySize=auto;html=1;exitX=1;exitY=0.25;exitDx=0;exitDy=0;entryX=0;entryY=0.85;entryDx=0;entryDy=0;entryPerimeter=0;" edge="1" parent="1" source="vBsG9OUvxW7fwPlPpPtp-23" target="vBsG9OUvxW7fwPlPpPtp-29">
          <mxGeometry relative="1" as="geometry" />
        </mxCell>
        <mxCell id="vBsG9OUvxW7fwPlPpPtp-23" value="APi POST" style="whiteSpace=wrap;html=1;aspect=fixed;" vertex="1" parent="1">
          <mxGeometry x="220" y="770" width="80" height="80" as="geometry" />
        </mxCell>
        <mxCell id="vBsG9OUvxW7fwPlPpPtp-26" style="edgeStyle=orthogonalEdgeStyle;rounded=0;orthogonalLoop=1;jettySize=auto;html=1;exitX=1;exitY=0.5;exitDx=0;exitDy=0;entryX=0;entryY=0.5;entryDx=0;entryDy=0;" edge="1" parent="1" source="vBsG9OUvxW7fwPlPpPtp-24" target="vBsG9OUvxW7fwPlPpPtp-22">
          <mxGeometry relative="1" as="geometry" />
        </mxCell>
        <mxCell id="vBsG9OUvxW7fwPlPpPtp-31" style="edgeStyle=orthogonalEdgeStyle;rounded=0;orthogonalLoop=1;jettySize=auto;html=1;exitX=1;exitY=0.75;exitDx=0;exitDy=0;entryX=0;entryY=0.5;entryDx=0;entryDy=0;" edge="1" parent="1" source="vBsG9OUvxW7fwPlPpPtp-24" target="vBsG9OUvxW7fwPlPpPtp-23">
          <mxGeometry relative="1" as="geometry" />
        </mxCell>
        <mxCell id="vBsG9OUvxW7fwPlPpPtp-24" value="Load Balacer" style="rounded=0;whiteSpace=wrap;html=1;" vertex="1" parent="1">
          <mxGeometry x="120" y="600" width="60" height="230" as="geometry" />
        </mxCell>
        <mxCell id="vBsG9OUvxW7fwPlPpPtp-30" style="edgeStyle=orthogonalEdgeStyle;rounded=0;orthogonalLoop=1;jettySize=auto;html=1;exitX=1;exitY=0.5;exitDx=0;exitDy=0;entryX=0;entryY=0.5;entryDx=0;entryDy=0;entryPerimeter=0;" edge="1" parent="1" source="vBsG9OUvxW7fwPlPpPtp-27" target="vBsG9OUvxW7fwPlPpPtp-29">
          <mxGeometry relative="1" as="geometry" />
        </mxCell>
        <mxCell id="vBsG9OUvxW7fwPlPpPtp-27" value="Cache" style="ellipse;whiteSpace=wrap;html=1;aspect=fixed;" vertex="1" parent="1">
          <mxGeometry x="370" y="675" width="80" height="80" as="geometry" />
        </mxCell>
        <mxCell id="vBsG9OUvxW7fwPlPpPtp-29" value="DB" style="strokeWidth=2;html=1;shape=mxgraph.flowchart.database;whiteSpace=wrap;" vertex="1" parent="1">
          <mxGeometry x="540" y="755" width="120" height="65" as="geometry" />
        </mxCell>
        <mxCell id="vBsG9OUvxW7fwPlPpPtp-35" value="URL" style="text;html=1;strokeColor=none;fillColor=none;align=center;verticalAlign=middle;whiteSpace=wrap;rounded=0;" vertex="1" parent="1">
          <mxGeometry x="320" y="770" width="40" height="20" as="geometry" />
        </mxCell>
        <mxCell id="vBsG9OUvxW7fwPlPpPtp-36" value="Load Balacer" style="rounded=0;whiteSpace=wrap;html=1;" vertex="1" parent="1">
          <mxGeometry x="130" y="610" width="60" height="230" as="geometry" />
        </mxCell>
        <mxCell id="vBsG9OUvxW7fwPlPpPtp-38" value="API READ" style="whiteSpace=wrap;html=1;aspect=fixed;" vertex="1" parent="1">
          <mxGeometry x="230" y="620" width="80" height="80" as="geometry" />
        </mxCell>
        <mxCell id="vBsG9OUvxW7fwPlPpPtp-39" value="API READ" style="whiteSpace=wrap;html=1;aspect=fixed;" vertex="1" parent="1">
          <mxGeometry x="240" y="630" width="80" height="80" as="geometry" />
        </mxCell>
        <mxCell id="vBsG9OUvxW7fwPlPpPtp-40" value="CDN" style="rounded=0;whiteSpace=wrap;html=1;" vertex="1" parent="1">
          <mxGeometry x="25" y="580" width="50" height="60" as="geometry" />
        </mxCell>
        <mxCell id="vBsG9OUvxW7fwPlPpPtp-42" value="APi POST" style="whiteSpace=wrap;html=1;aspect=fixed;" vertex="1" parent="1">
          <mxGeometry x="230" y="780" width="80" height="80" as="geometry" />
        </mxCell>
        <mxCell id="vBsG9OUvxW7fwPlPpPtp-43" value="APi POST" style="whiteSpace=wrap;html=1;aspect=fixed;" vertex="1" parent="1">
          <mxGeometry x="240" y="790" width="80" height="80" as="geometry" />
        </mxCell>
      </root>
    </mxGraphModel>
  </diagram>
</mxfile>
